<?xml version="1.0" encoding="utf-8"?>
<!-- Generator: Adobe Illustrator 21.0.0, SVG Export Plug-In . SVG Version: 6.00 Build 0)  -->
<svg version="1.2" baseProfile="tiny" id="Layer_1" xmlns="http://www.w3.org/2000/svg" xmlns:xlink="http://www.w3.org/1999/xlink"
	 x="0px" y="0px" viewBox="0 0 119.9 120" xml:space="preserve">
<path fill="#F9F9F9" d="M71.9,119.8c-12.7,0.4-25.4-0.1-38-1.2C20,117.3,5.6,113.9,2.7,98c-1.8-10.3-2.4-20.6-2.6-31
	c-0.3-14.6,0.2-29.2,2.3-43.7c3-20.1,22-21.8,38.8-22.6C56.5,0,71.7-0.4,86.7,1.4C99.6,3,113.3,5.2,116.6,20
	c2.5,11.4,2.9,23.1,3.1,34.8c0.3,14-0.1,28-2.4,41.7c-1.3,7.5-4.7,14.9-11.9,18.3c-3.8,1.8-8.1,2.6-12.3,3.1
	C86.1,118.9,79,119.5,71.9,119.8z"/>
<g>
	<path fill="#FF6F00" d="M59.9,20.5c-17.4,0-31.5,14.1-31.5,31.5c0,7.8,2.8,15.2,8,21l23.5,26.6l23.5-26.6c5.2-5.8,8-13.2,8-21
		C91.4,34.6,77.3,20.5,59.9,20.5L59.9,20.5z"/>
	<path fill="#FF8F00" d="M91.4,52c0,7.8-2.8,15.2-8,21L59.9,99.5V20.5C77.3,20.5,91.4,34.6,91.4,52L91.4,52z"/>
	<path fill="#E9EDF5" d="M40.5,50.7c0-10.7,8.7-19.4,19.4-19.4s19.4,8.7,19.4,19.4s-8.7,19.4-19.4,19.4S40.5,61.4,40.5,50.7z"/>
	<path fill="#FFFFFF" d="M79.3,50.7c0-10.7-8.7-19.4-19.4-19.4v38.8C70.6,70.1,79.3,61.4,79.3,50.7z"/>
	<g>
		<path fill="#424242" d="M52.7,53.6h-4.9l-0.6,1.6c-0.1,0.4-0.3,0.7-0.6,0.9c-0.3,0.2-0.5,0.3-0.8,0.3c-0.3,0-0.5-0.1-0.8-0.3
			c-0.2-0.1-0.4-0.4-0.5-0.7c-0.1-0.3-0.1-0.7,0.1-1.1l3.1-7.9c0.2-0.5,0.3-0.9,0.5-1.2c0.2-0.3,0.4-0.6,0.6-0.7
			c0.2-0.2,0.4-0.3,0.7-0.3c0.2-0.1,0.5-0.1,0.7-0.1c0.3,0,0.5,0,0.7,0.1c0.2,0.1,0.4,0.2,0.7,0.3c0.2,0.2,0.4,0.4,0.6,0.7
			c0.2,0.3,0.4,0.7,0.5,1.2l3.1,7.9c0.1,0.4,0.1,0.8,0.1,1.1c-0.1,0.3-0.2,0.6-0.5,0.7c-0.2,0.1-0.5,0.2-0.8,0.3
			c-0.3,0-0.5-0.1-0.8-0.3c-0.3-0.2-0.5-0.5-0.6-0.9L52.7,53.6z M50.2,46.7l-1.8,5.2H52L50.2,46.7z"/>
		<path fill="#424242" d="M58.8,55.9c-0.3-0.3-0.5-0.8-0.5-1.2v-7.9c0-0.3,0-0.6,0-0.8c0-0.2,0.1-0.4,0.2-0.7
			c0.1-0.2,0.2-0.4,0.3-0.6c0.1-0.1,0.3-0.3,0.6-0.3c0.2-0.1,0.5-0.1,0.9-0.1h3.3c0.5,0,1,0,1.5,0.1s0.9,0.2,1.3,0.4
			c0.4,0.2,0.8,0.4,1,0.7c0.3,0.3,0.5,0.6,0.7,1.1c0.2,0.4,0.2,1,0.2,1.6c0,1.3-0.4,2.2-1.2,2.8c-0.8,0.6-2,1-3.5,1h-2.2v2.9
			c0,0.5-0.2,0.9-0.5,1.2c-0.3,0.3-0.7,0.5-1.1,0.5S59.1,56.2,58.8,55.9z M63.1,49.9c0.4,0,0.7,0,0.9-0.1c0.3-0.1,0.5-0.2,0.7-0.3
			c0.2-0.1,0.3-0.3,0.4-0.6c0.1-0.2,0.1-0.6,0.1-0.9c0-0.7-0.2-1.2-0.5-1.4c-0.3-0.2-0.8-0.4-1.5-0.4h-1.8v3.7H63.1z"/>
		<path fill="#424242" d="M71.1,55.9c-0.3-0.3-0.4-0.8-0.4-1.2V46c0-0.5,0.1-0.9,0.4-1.2c0.3-0.3,0.7-0.5,1.1-0.5
			c0.4,0,0.8,0.2,1.1,0.5c0.3,0.3,0.5,0.8,0.5,1.2v8.7c0,0.5-0.2,0.9-0.5,1.2c-0.3,0.3-0.7,0.5-1.1,0.5
			C71.8,56.4,71.4,56.2,71.1,55.9z"/>
	</g>
</g>
</svg>
