<?xml version="1.0" encoding="utf-8"?>
<!-- Generator: Adobe Illustrator 21.0.0, SVG Export Plug-In . SVG Version: 6.00 Build 0)  -->
<svg version="1.2" baseProfile="tiny" id="Layer_1" xmlns="http://www.w3.org/2000/svg" xmlns:xlink="http://www.w3.org/1999/xlink"
	 x="0px" y="0px" viewBox="0 0 119.9 120" xml:space="preserve">
<path fill="#F9F9F9" d="M71.6,119.8c-12.7,0.4-25.4-0.1-38-1.2C19.7,117.3,5.3,113.9,2.5,98c-1.8-10.3-2.4-20.6-2.6-31
	c-0.3-14.6,0.2-29.2,2.3-43.7c3-20.1,22-21.8,38.8-22.6C56.2,0,71.4-0.4,86.5,1.4C99.4,3,113.1,5.2,116.3,20
	c2.5,11.4,2.9,23.1,3.1,34.8c0.3,14-0.1,28-2.4,41.7c-1.3,7.5-4.7,14.9-11.9,18.3c-3.8,1.8-8.1,2.6-12.3,3.1
	C85.8,118.9,78.7,119.5,71.6,119.8z"/>
<g>
	<path fill="#424242" d="M49.6,92.5H34.5c-0.8,0-1.5-0.4-1.9-1c-0.4-0.6-0.6-1.4-0.3-2.1l7.5-22.6c0.3-1,1.2-1.6,2.2-1.6h15.1
		c0.8,0,1.5,0.4,1.9,1c0.4,0.6,0.6,1.4,0.3,2.1l-7.5,22.6C51.5,91.9,50.6,92.5,49.6,92.5L49.6,92.5z"/>
	<path fill="#FF6F00" d="M32,64.6h-2.7c-5.4,0-9.7-4.4-9.7-9.7c0-5.4,4.4-9.7,9.7-9.7H32c1.3,0,2.3,1.1,2.3,2.3v14.8
		C34.3,63.5,33.3,64.6,32,64.6z"/>
	<path fill="#FF8F00" d="M29.3,64.6H32c1.3,0,2.3-1.1,2.3-2.3v-7.4H19.6C19.6,60.2,23.9,64.6,29.3,64.6z"/>
	<path fill="#FF6F00" d="M97.4,82.5c-0.3,0-0.5,0-0.8-0.1L61.4,69.8c-0.9-0.3-1.6-1.2-1.6-2.2V42.4c0-1,0.6-1.9,1.6-2.2l35.2-12.6
		c0.7-0.3,1.5-0.1,2.1,0.3c0.6,0.4,1,1.2,1,1.9v50.3c0,0.8-0.4,1.5-1,1.9C98.3,82.3,97.8,82.5,97.4,82.5L97.4,82.5z"/>
	<path fill="#FF8F00" d="M61.4,69.8l35.2,12.6c0.3,0.1,0.5,0.1,0.8,0.1c0.5,0,1-0.1,1.4-0.4c0.6-0.4,1-1.2,1-1.9V54.8H59.8v12.7
		C59.8,68.5,60.4,69.4,61.4,69.8L61.4,69.8z"/>
	<path fill="#EBF1F2" d="M61.7,40H37c-4.1,0-7.4,3.3-7.4,7.4v15.1c0,4.1,3.3,7.4,7.4,7.4h24.7L61.7,40L61.7,40z"/>
	<g>
		<path fill="#FFFFFF" d="M37,69.9h24.7V54.8H29.6v7.7C29.6,66.6,33,69.9,37,69.9L37,69.9z"/>
		<path fill="#FF6F00" d="M42,59.8c-1.3,0-2.3-1.1-2.3-2.3v-5c0-1.3,1.1-2.3,2.3-2.3s2.3,1.1,2.3,2.3v5C44.4,58.8,43.3,59.8,42,59.8
			z"/>
		<path fill="#FF6F00" d="M52.1,59.8c-1.3,0-2.3-1.1-2.3-2.3v-5c0-1.3,1.1-2.3,2.3-2.3s2.3,1.1,2.3,2.3v5
			C54.4,58.8,53.4,59.8,52.1,59.8z"/>
	</g>
	<path fill="#FF8F00" d="M42,59.8c1.3,0,2.3-1.1,2.3-2.3v-2.7h-4.7v2.7C39.7,58.8,40.7,59.8,42,59.8z"/>
	<path fill="#FF8F00" d="M52.1,59.8c1.3,0,2.3-1.1,2.3-2.3v-2.7h-4.7v2.7C49.7,58.8,50.8,59.8,52.1,59.8z"/>
</g>
</svg>
