<?xml version="1.0" encoding="utf-8"?>
<!-- Generator: Adobe Illustrator 21.0.0, SVG Export Plug-In . SVG Version: 6.00 Build 0)  -->
<svg version="1.2" baseProfile="tiny" id="Layer_1" xmlns="http://www.w3.org/2000/svg" xmlns:xlink="http://www.w3.org/1999/xlink"
	 x="0px" y="0px" viewBox="0 0 119.9 120" xml:space="preserve">
<path fill="#F9F9F9" d="M71.9,119.8c-12.7,0.4-25.4-0.1-38-1.2C19.9,117.4,5.5,114,2.7,98C0.9,87.7,0.3,77.3,0.1,66.9
	c-0.3-14.6,0.2-29.2,2.3-43.7c3-20.1,22-21.8,38.9-22.6c15.1-0.7,30.4-1.1,45.5,0.8c12.9,1.6,26.6,3.8,29.9,18.6
	c2.5,11.5,2.9,23.2,3.1,34.9c0.3,14-0.1,28-2.4,41.8c-1.3,7.6-4.7,14.9-11.9,18.3c-3.8,1.8-8.1,2.6-12.3,3.1
	C86.1,119,79,119.6,71.9,119.8z"/>
<g>
	<path fill="#FF6F00" d="M95.2,85.4C94.8,92,88.4,96.6,82,94.9L59.9,89l-24.8-6.6C27.9,80.4,24.7,66.6,24.7,60
		c0-19.7,15.6-35.2,35.2-35.2c17.4,0,31.8,12.5,34.7,29c0,0,0,0,0,0c0.2,1.1-0.6,2-1.7,2H71.7c-1.8,0-3.4-1.1-3.9-2.6
		c-1.1-3.4-4.2-5.7-7.8-5.7c-4.9,0-8.3,4.2-8.3,8.7v5.8c0,5.3,3.3,10,8.3,11.8L93,82.7L95.2,85.4z"/>
	<path fill="#FF8F00" d="M59.9,47.6V24.8c17.4,0,31.8,12.5,34.7,29c0,0,0,0,0,0c0.2,1.1-0.6,2-1.7,2H71.7c-1.8,0-3.4-1.1-3.9-2.6
		C66.7,49.9,63.5,47.6,59.9,47.6z"/>
	<path fill="#FF8F00" d="M95.2,85.4C94.8,92,88.4,96.6,82,94.9L59.9,89V73.8L93,82.7L95.2,85.4z"/>
	<path fill="#353535" d="M95.2,60v24.8c0,0.2,0,0.4,0,0.6c-36.9-9.8-34.8-9.3-35.2-9.4c-6.1-1.9-10.3-7.5-10.3-13.9v-5.8
		c0-5.6,4.3-10.8,10.3-10.8c4.4,0,8.4,2.8,9.8,7.1c0.2,0.7,1,1.2,1.9,1.2h23C95,55.8,95.2,57.9,95.2,60L95.2,60z"/>
	<path fill="#424242" d="M95.2,60v24.8c0,0.2,0,0.4,0,0.6c-36.9-9.8-34.8-9.3-35.2-9.4V45.6c4.4,0,8.4,2.8,9.8,7.1
		c0.2,0.7,1,1.2,1.9,1.2h23C95,55.8,95.2,57.9,95.2,60L95.2,60z"/>
	<circle fill="#FFFFFF" cx="59.9" cy="55.9" r="2.1"/>
	<g>
		<path fill="#FFFFFF" d="M62,55.9c0,1.1-0.9,2.1-2.1,2.1v-4.1C61.1,53.8,62,54.7,62,55.9z"/>
		<path fill="#FFFFFF" d="M83.3,73.9L75,65.6c-0.8-0.8-0.8-2.1,0-2.9c0.8-0.8,2.1-0.8,2.9,0l8.3,8.3c0.8,0.8,0.8,2.1,0,2.9
			C85.4,74.7,84.1,74.7,83.3,73.9z"/>
	</g>
</g>
</svg>
