<?xml version="1.0" encoding="utf-8"?>
<!-- Generator: Adobe Illustrator 21.0.0, SVG Export Plug-In . SVG Version: 6.00 Build 0)  -->
<svg version="1.2" baseProfile="tiny" id="Layer_1" xmlns="http://www.w3.org/2000/svg" xmlns:xlink="http://www.w3.org/1999/xlink"
	 x="0px" y="0px" viewBox="0 0 119.9 120" xml:space="preserve">
<path fill="#F9F9F9" d="M71.9,119.8c-12.7,0.4-25.4-0.1-38-1.2C20,117.3,5.6,113.9,2.7,98c-1.8-10.3-2.4-20.6-2.6-31
	c-0.3-14.6,0.2-29.2,2.3-43.7c3-20.1,22-21.8,38.8-22.6C56.5,0,71.7-0.4,86.7,1.4C99.6,3,113.3,5.2,116.6,20
	c2.5,11.4,2.9,23.1,3.1,34.8c0.3,14-0.1,28-2.4,41.7c-1.3,7.5-4.7,14.9-11.9,18.3c-3.8,1.8-8.1,2.6-12.3,3.1
	C86.1,118.9,79,119.5,71.9,119.8z"/>
<g>
	<path fill="#353535" d="M82.2,27.7c0,2.7-2.2,4.9-4.9,4.9h-1.3c0.8-1.5,1.3-3.1,1.3-4.9c0-5.5-4.4-9.9-9.9-9.9
		c-3,0-5.6,1.3-7.4,3.4c-1.8-2.1-4.5-3.4-7.4-3.4c-5.5,0-9.9,4.4-9.9,9.9c0,1.8,0.5,3.5,1.3,4.9h-1.3c-2.7,0-4.9-2.2-4.9-4.9h-4.9
		c0,5.5,4.4,9.9,9.9,9.9h34.6c5.5,0,9.9-4.4,9.9-9.9H82.2z M57.5,32.6h-4.9c-2.7,0-4.9-2.2-4.9-4.9s2.2-4.9,4.9-4.9
		c2.7,0,4.9,2.2,4.9,4.9V32.6z M67.4,32.6h-4.9v-4.9c0-2.7,2.2-4.9,4.9-4.9s4.9,2.2,4.9,4.9S70.1,32.6,67.4,32.6z"/>
	<path fill="#424242" d="M82.2,27.7c0,2.7-2.2,4.9-4.9,4.9h-1.3c0.8-1.5,1.3-3.1,1.3-4.9c0-5.5-4.4-9.9-9.9-9.9
		c-3,0-5.6,1.3-7.4,3.4v16.4h17.3c5.5,0,9.9-4.4,9.9-9.9H82.2z M67.4,32.6h-4.9v-4.9c0-2.7,2.2-4.9,4.9-4.9s4.9,2.2,4.9,4.9
		S70.1,32.6,67.4,32.6z"/>
	<path fill="#FF6F00" d="M30.9,55.2h58c1.7,0,3.1,1.4,3.1,3.1v40.7c0,1.7-1.4,3.1-3.1,3.1h-58c-1.7,0-3.1-1.4-3.1-3.1V58.4
		C27.8,56.6,29.2,55.2,30.9,55.2z"/>
	<path fill="#FF8F00" d="M63.1,55.2h25.9c1.7,0,3.1,1.4,3.1,3.1v40.7c0,1.7-1.4,3.1-3.1,3.1H63.1c-1.7,0-3.1-1.4-3.1-3.1V58.4
		C59.9,56.6,61.3,55.2,63.1,55.2z"/>
	<path fill="#E9EDF5" d="M50,77.5c-4.1,0-7.4-3.3-7.4-7.4s3.3-7.4,7.4-7.4s7.4,3.3,7.4,7.4S54.1,77.5,50,77.5z M50,67.6
		c-1.4,0-2.5,1.1-2.5,2.5s1.1,2.5,2.5,2.5c1.4,0,2.5-1.1,2.5-2.5S51.4,67.6,50,67.6z"/>
	<path fill="#FFFFFF" d="M69.8,92.3c-4.1,0-7.4-3.3-7.4-7.4c0-4.1,3.3-7.4,7.4-7.4s7.4,3.3,7.4,7.4C77.2,89,73.9,92.3,69.8,92.3z
		 M69.8,82.4c-1.4,0-2.5,1.1-2.5,2.5c0,1.4,1.1,2.5,2.5,2.5c1.4,0,2.5-1.1,2.5-2.5C72.3,83.5,71.2,82.4,69.8,82.4z"/>
	<path fill="#E9EDF5" d="M71.8,66.7L59.9,81.4l-8,10l-3.9-3.1l11.8-14.8l8-10L71.8,66.7z"/>
	<path fill="#FFFFFF" d="M71.8,66.7L59.9,81.4v-7.9l8-10L71.8,66.7z"/>
	<path fill="#E65100" d="M61.7,33.4L61.7,33.4c-1,1-2.6,1-3.5,0l0,0c-0.5-0.5-1.1-0.8-1.8-0.8H25.2c-1.3,0-2.4,1.1-2.4,2.4v20.2
		c0,1.3,1.1,2.4,2.4,2.4h31.2c0.6,0,1.3-0.3,1.7-0.7l0.1-0.1c0.9-0.9,2.5-0.9,3.4,0l0.1,0.1c0.5,0.5,1.1,0.7,1.7,0.7h31.2
		c1.3,0,2.4-1.1,2.4-2.4V35c0-1.3-1.1-2.4-2.4-2.4H63.5C62.8,32.6,62.1,32.9,61.7,33.4z"/>
	<path fill="#FF6F00" d="M97,35v20.2c0,1.3-1.1,2.4-2.4,2.4H63.4c-0.6,0-1.3-0.3-1.7-0.7l-1.1-1.1c-0.5-0.5-0.7-1.1-0.7-1.7v-18
		c0-0.6,0.2-1.2,0.7-1.6l1.1-1.2c0.5-0.5,1.1-0.8,1.8-0.8h31.2C96,32.6,97,33.7,97,35z"/>
	<path fill="#353535" d="M57.5,32.6h4.9v25.1h-4.9V32.6z"/>
	<path fill="#424242" d="M59.9,32.6h2.5v25.1h-2.5V32.6z"/>
</g>
</svg>
