<?xml version="1.0" encoding="utf-8"?>
<!-- Generator: Adobe Illustrator 21.0.0, SVG Export Plug-In . SVG Version: 6.00 Build 0)  -->
<svg version="1.2" baseProfile="tiny" id="Layer_1" xmlns="http://www.w3.org/2000/svg" xmlns:xlink="http://www.w3.org/1999/xlink"
	 x="0px" y="0px" viewBox="0 0 119.9 120" xml:space="preserve">
<path fill="#F9F9F9" d="M71.9,119.8c-12.7,0.4-25.4-0.1-38-1.2C20,117.3,5.6,113.9,2.7,98c-1.8-10.3-2.4-20.6-2.6-31
	c-0.3-14.6,0.2-29.2,2.3-43.7c3-20.1,22-21.8,38.8-22.6C56.5,0,71.7-0.4,86.7,1.4C99.6,3,113.3,5.2,116.6,20
	c2.5,11.4,2.9,23.1,3.1,34.8c0.3,14-0.1,28-2.4,41.7c-1.3,7.5-4.7,14.9-11.9,18.3c-3.8,1.8-8.1,2.6-12.3,3.1
	C86.1,118.9,79,119.5,71.9,119.8z"/>
<g>
	<path fill="#EBF1F2" d="M28.5,36.1v35.6c0,4.1,2.7,7.4,6,7.4h24.6v-43H28.5z"/>
	<path fill="#FF8F00" d="M88.7,42.8H29.5c-0.5,0-1-0.4-1-1V27.2c0-0.5,0.4-1,1-1h59.2c0.5,0,1,0.4,1,1v14.6
		C89.7,42.3,89.3,42.8,88.7,42.8z"/>
	<g>
		<path fill="#FFFFFF" d="M89.7,73.3c0,3.2-2.6,5.8-5.8,5.8H34.3c-3.2,0-5.8-2.6-5.8-5.8V36.1h61.2V73.3z"/>
	</g>
	<g>
		<path fill="#FF6F00" d="M59.1,26.2H31.5c-1.7,0-3,1.3-3,3v6.9h30.6V26.2z"/>
		<path fill="#EBF1F2" d="M59.1,36.1H28.5v5.7v29.9c0,4.1,2.7,7.4,6,7.4h24.6V36.1z"/>
	</g>
	<g>
		<path fill="#424242" d="M48.7,58.8h-4.9l-0.6,1.6c-0.1,0.4-0.3,0.7-0.6,0.9c-0.3,0.2-0.5,0.3-0.8,0.3c-0.3,0-0.5-0.1-0.8-0.3
			c-0.2-0.1-0.4-0.4-0.5-0.7s-0.1-0.7,0.1-1.1l3.1-7.9c0.2-0.5,0.3-0.9,0.5-1.2c0.2-0.3,0.4-0.6,0.6-0.7c0.2-0.2,0.4-0.3,0.7-0.3
			c0.2-0.1,0.5-0.1,0.7-0.1c0.3,0,0.5,0,0.7,0.1c0.2,0.1,0.4,0.2,0.7,0.3c0.2,0.2,0.4,0.4,0.6,0.7c0.2,0.3,0.4,0.7,0.5,1.2l3.1,7.9
			c0.1,0.4,0.1,0.8,0.1,1.1c-0.1,0.3-0.2,0.6-0.5,0.7c-0.2,0.1-0.5,0.2-0.8,0.3c-0.3,0-0.5-0.1-0.8-0.3c-0.3-0.2-0.5-0.5-0.6-0.9
			L48.7,58.8z M46.3,51.8l-1.8,5.2h3.7L46.3,51.8z"/>
		<path fill="#424242" d="M55,61.2c-0.2-0.2-0.4-0.5-0.5-0.9c-0.1-0.3-0.1-0.7-0.1-1.1v-7.5c0-0.8,0.2-1.5,0.5-1.8
			c0.3-0.4,0.9-0.5,1.6-0.5h1.8c2.3,0,4,0.5,5.1,1.6c1.2,1,1.7,2.6,1.7,4.6c0,2-0.6,3.5-1.7,4.5c-1.1,1-2.8,1.5-5,1.5H56
			C55.6,61.6,55.3,61.5,55,61.2z M58.4,59.5c0.9,0,1.6-0.1,2.1-0.4c0.5-0.2,0.9-0.7,1.1-1.2c0.2-0.6,0.4-1.4,0.4-2.4
			c0-1.5-0.3-2.5-0.8-3.1s-1.4-0.9-2.7-0.9h-1v8H58.4z"/>
		<path fill="#424242" d="M68.3,61c-0.2-0.1-0.3-0.3-0.4-0.4c-0.1-0.2-0.1-0.4-0.1-0.5c0-0.2,0.1-0.4,0.2-0.5
			c0.1-0.2,0.2-0.3,0.4-0.4c0.2-0.1,0.3-0.2,0.5-0.2c0.2,0,0.4,0,0.6,0.1c0.9,0.4,1.9,0.6,2.8,0.6c0.6,0,1.1-0.1,1.5-0.3
			c0.4-0.2,0.6-0.5,0.6-1c0-0.6-0.4-1-1.3-1.3l-2.8-0.9c-1-0.4-1.8-0.8-2.2-1.3c-0.4-0.5-0.6-1.1-0.6-1.9c0-1.1,0.4-2,1.3-2.7
			c0.9-0.7,2.1-1,3.6-1c0.7,0,1.5,0.1,2.2,0.3c0.8,0.2,1.3,0.5,1.7,0.8c0.2,0.2,0.3,0.4,0.3,0.6c0,0.2,0,0.4,0,0.6
			c-0.1,0.2-0.2,0.3-0.3,0.5c-0.1,0.2-0.3,0.2-0.4,0.3c-0.2,0-0.3,0-0.5-0.1c-0.5-0.3-1-0.5-1.4-0.6c-0.4-0.1-0.9-0.2-1.5-0.2
			c-0.4,0-0.7,0-1,0.1c-0.3,0.1-0.6,0.2-0.8,0.4c-0.2,0.2-0.3,0.4-0.3,0.7c0,0.4,0.1,0.6,0.4,0.9c0.3,0.2,0.7,0.4,1.3,0.6
			c0.1,0.1,0.3,0.1,0.6,0.1c0.3,0,0.5,0.1,0.6,0.1c0.5,0.2,1,0.3,1.3,0.5c0.4,0.1,0.7,0.3,1.1,0.5c0.3,0.2,0.6,0.4,0.8,0.7
			c0.2,0.2,0.4,0.5,0.5,0.9c0.1,0.3,0.2,0.7,0.2,1.2c0,1.2-0.4,2.1-1.3,2.8c-0.9,0.7-2.1,1-3.6,1C70.7,61.9,69.3,61.6,68.3,61z"/>
	</g>
	<g>
		<path fill="#FF6F00" d="M90.6,77.7L73,68c-1-0.5-2.1,0.2-2.1,1.3v20.1c0,1.1,1.2,1.8,2.2,1.2l4.6-2.7l3.3,5.2
			c0.4,0.7,1.3,0.9,2,0.5l5.9-3.5c0.7-0.4,0.9-1.3,0.5-2l-3.2-5.2l4.6-2.7C91.6,79.6,91.6,78.2,90.6,77.7z"/>
		<path fill="#FF8F00" d="M90.6,80.2l-4.6,2.7l3.2,5.2c0.4,0.7,0.2,1.6-0.5,2l-2.6,1.6L71.5,68.1c0.4-0.3,1-0.3,1.5-0.1l17.6,9.6
			C91.6,78.2,91.6,79.6,90.6,80.2z"/>
	</g>
</g>
</svg>
