<svg id="Layer_1" data-name="Layer 1" xmlns="http://www.w3.org/2000/svg" viewBox="0 0 119.87 120"><defs><style>.cls-1{fill:#f9f9f9;}.cls-2{fill:#ff6f00;}.cls-3{fill:#ff8f00;}.cls-4{fill:#ebf1f2;}.cls-5{fill:#fff;}.cls-6{fill:#353535;}.cls-7{fill:#424242;}</style></defs><title>ICON SET</title><path class="cls-1" d="M71.92,119.76a312.59,312.59,0,0,1-38-1.24C20,117.3,5.6,113.94,2.75,98a196.24,196.24,0,0,1-2.59-31A265.41,265.41,0,0,1,2.5,23.25c3-20.12,22-21.78,38.84-22.58C56.47,0,71.69-.38,86.75,1.44,99.64,3,113.34,5.23,116.59,20c2.52,11.45,2.88,23.15,3.1,34.82.26,14-.08,28-2.45,41.75-1.3,7.55-4.68,14.86-11.9,18.28A41.74,41.74,0,0,1,93.07,118,206.88,206.88,0,0,1,71.92,119.76Z"/><path class="cls-2" d="M86.65,63.7,61.76,38.82a2.57,2.57,0,0,0-1.83-.76H52.79a6.91,6.91,0,0,1-4.85-2,2.58,2.58,0,0,0-3.65,0L24.93,55.41a2.58,2.58,0,0,0,0,3.65l8.3,8.3a2.58,2.58,0,0,0,3.65,0l3.7-3.7L58.75,81.83a4.34,4.34,0,0,1,0,6.14l-.62.63A2.58,2.58,0,0,0,59.93,93,16,16,0,0,0,71.2,88.33L86.65,72.88a6.49,6.49,0,0,0,0-9.18Z"/><path class="cls-3" d="M88.55,68.3a6.46,6.46,0,0,0-1.9-4.59L61.76,38.82a2.57,2.57,0,0,0-1.83-.76H52.79a6.91,6.91,0,0,1-4.85-2,2.58,2.58,0,0,0-3.65,0L34.6,45.73l39.6,39.6L86.65,72.88a6.46,6.46,0,0,0,1.9-4.59Z"/><path class="cls-4" d="M59.93,93a16,16,0,0,1-11.27-4.67L33.22,72.89a6.48,6.48,0,0,1,0-9.18l5.53-5.53a2.59,2.59,0,0,1,3.65,0l20,20c1,1,6.17,7.27-.64,14.07a2.58,2.58,0,0,1-1.83.76Z"/><path class="cls-5" d="M94.94,55.41,75.58,36.05a2.59,2.59,0,0,0-3.65,0,6.9,6.9,0,0,1-4.85,2H59.93a2.58,2.58,0,0,0-1.83.76l-11,11a2.58,2.58,0,0,0,0,3.69,14.33,14.33,0,0,0,19.43.76L70,50.73a2.58,2.58,0,0,1,3.65,0l13,13a6.5,6.5,0,0,1,1.45,2.2l6.85-6.85a2.58,2.58,0,0,0,0-3.65Z"/><path class="cls-6" d="M47.93,36.05l-8.3-8.3a2.58,2.58,0,0,0-3.65,0L16.63,47.11a2.58,2.58,0,0,0,0,3.65l8.3,8.3Z"/><path class="cls-7" d="M39.64,27.76a2.58,2.58,0,0,0-3.65,0l-9.68,9.68L36.43,47.56l11.5-11.5Z"/><path class="cls-4" d="M94.94,55.41l-9.68-9.68L77,54l9.68,9.68a6.5,6.5,0,0,1,1.45,2.2l6.85-6.85A2.58,2.58,0,0,0,94.94,55.41Z"/><path class="cls-3" d="M71.93,36.05l8.3-8.3a2.58,2.58,0,0,1,3.65,0l19.36,19.36a2.58,2.58,0,0,1,0,3.65l-8.3,8.3Z"/><path class="cls-2" d="M103.24,47.11l-9.68-9.68L83.44,47.56l11.5,11.5,8.3-8.3A2.58,2.58,0,0,0,103.24,47.11Z"/></svg>