<?xml version="1.0" encoding="utf-8"?>
<!-- Generator: Adobe Illustrator 21.0.0, SVG Export Plug-In . SVG Version: 6.00 Build 0)  -->
<svg version="1.2" baseProfile="tiny" id="Layer_1" xmlns="http://www.w3.org/2000/svg" xmlns:xlink="http://www.w3.org/1999/xlink"
	 x="0px" y="0px" viewBox="0 0 119.9 120" xml:space="preserve">
<path fill="#F9F9F9" d="M71.9,119.8c-12.7,0.4-25.4-0.1-38-1.2C20,117.3,5.6,113.9,2.7,98c-1.8-10.3-2.4-20.6-2.6-31
	c-0.3-14.6,0.2-29.2,2.3-43.7c3-20.1,22-21.8,38.8-22.6C56.5,0,71.7-0.4,86.7,1.4C99.6,3,113.3,5.2,116.6,20
	c2.5,11.4,2.9,23.1,3.1,34.8c0.3,14-0.1,28-2.4,41.7c-1.3,7.5-4.7,14.9-11.9,18.3c-3.8,1.8-8.1,2.6-12.3,3.1
	C86.1,118.9,79,119.5,71.9,119.8z"/>
<g>
	<path fill="#FF6F00" d="M78.4,102h-37c-2.8,0-5-2.3-5-5V23c0-2.8,2.3-5,5-5h37c2.8,0,5,2.3,5,5V97C83.5,99.8,81.2,102,78.4,102z"/>
	<path fill="#FF8F00" d="M78.4,18H59.9v84h18.5c2.8,0,5-2.3,5-5V23C83.5,20.2,81.2,18,78.4,18L78.4,18z"/>
	<path fill="#FFFFFF" d="M39.3,26.5h41.3v66.9H39.3V26.5z"/>
	<path fill="#E9EDF5" d="M59.9,93.5H39.3V26.5h20.6V93.5z"/>
	<path fill="#424242" d="M66.9,62.1H53.7c-0.5,0-0.9-0.4-0.9-0.9V48c0-0.5,0.4-0.9,0.9-0.9h13.2c0.5,0,0.9,0.4,0.9,0.9v13.2
		C67.8,61.7,67.4,62.1,66.9,62.1z"/>
	<path fill="#424242" d="M67.5,70.7H53.1c-0.1,0-0.3-0.1-0.3-0.3v-3.8c0-0.1,0.1-0.3,0.3-0.3h14.5c0.1,0,0.3,0.1,0.3,0.3v3.8
		C67.8,70.6,67.7,70.7,67.5,70.7z"/>
	<g>
		<path fill="#353535" d="M52.8,48v13.2c0,0.5,0.4,0.9,0.9,0.9h6.2v-15h-6.2C53.2,47.2,52.8,47.6,52.8,48z"/>
		<path fill="#353535" d="M59.9,66.4h-6.8c-0.1,0-0.3,0.1-0.3,0.3v3.8c0,0.1,0.1,0.3,0.3,0.3h6.8V66.4z"/>
	</g>
</g>
</svg>
