<?xml version="1.0" encoding="utf-8"?>
<!-- Generator: Adobe Illustrator 21.0.0, SVG Export Plug-In . SVG Version: 6.00 Build 0)  -->
<svg version="1.2" baseProfile="tiny" id="Layer_1" xmlns="http://www.w3.org/2000/svg" xmlns:xlink="http://www.w3.org/1999/xlink"
	 x="0px" y="0px" viewBox="0 0 119.9 120" xml:space="preserve">
<path fill="#F9F9F9" d="M71.8,119c-12.5,0.4-25-0.1-37.5-1.2c-13.8-1.2-27.9-4.5-30.8-20.3C1.7,87.3,1.1,77.1,1,66.8
	C0.7,52.4,1.2,38,3.3,23.7C6.2,3.9,24.9,2.2,41.6,1.5c14.9-0.7,29.9-1,44.8,0.8c12.7,1.5,26.2,3.7,29.4,18.3
	c2.5,11.3,2.8,22.8,3.1,34.4c0.3,13.8-0.1,27.6-2.4,41.2c-1.3,7.4-4.6,14.7-11.7,18c-3.8,1.8-8,2.5-12.1,3.1
	C85.7,118.2,78.7,118.7,71.8,119z"/>
<g>
	<path fill="#FF8F00" d="M88.1,27.7l-22.9-4.6c-1.7-0.3-3.5,0.2-4.8,1.4L41.7,43.3l11.1,23.8l23.8,11.1l18.7-18.7
		c1.2-1.2,1.8-3,1.4-4.8l-4.6-22.9C91.8,29.8,90.2,28.1,88.1,27.7z"/>
	<path fill="#FF6F00" d="M24.9,60.1l16.8-16.8l34.9,34.9L59.8,95c-2.6,2.6-6.8,2.6-9.4,0L24.9,69.5C22.3,66.9,22.3,62.7,24.9,60.1z"
		/>
	<path fill="#FFFFFF" d="M75.5,53.9L63.9,65.5l-0.5,3.7l3.7-0.5l11.6-11.6c0.3-0.3,0.3-0.7,0-0.9l-2.2-2.2
		C76.2,53.6,75.7,53.6,75.5,53.9z"/>
	<path fill="#E9EDF5" d="M52.4,77l11.6-11.6l3.2,3.2L55.5,80.2c-0.3,0.3-0.7,0.3-0.9,0L52.4,78C52.1,77.7,52.1,77.3,52.4,77z"/>
	<path fill="#FFFFFF" d="M69.2,47.6L57.6,59.2l-0.5,3.7l3.7-0.5l11.6-11.6c0.3-0.3,0.3-0.7,0-0.9l-2.2-2.2
		C69.9,47.3,69.4,47.3,69.2,47.6z"/>
	<path fill="#E9EDF5" d="M46,70.7l11.6-11.6l3.2,3.2L49.2,73.9c-0.3,0.3-0.7,0.3-0.9,0L46,71.7C45.8,71.4,45.8,71,46,70.7z"/>
	<path fill="#FFFFFF" d="M62.9,41.3L51.3,52.9l-0.5,3.7l3.7-0.5L66,44.4c0.3-0.3,0.3-0.7,0-0.9l-2.2-2.2C63.6,41,63.1,41,62.9,41.3z
		"/>
	<path fill="#E9EDF5" d="M39.7,64.4l11.6-11.6l3.2,3.2L42.9,67.6c-0.3,0.3-0.7,0.3-0.9,0l-2.2-2.2C39.5,65.1,39.5,64.7,39.7,64.4z"
		/>
	<path fill="#424242" d="M76.7,40.1l1.6-1.6c0.4-0.4,1.1-0.4,1.5,0l1.6,1.6c0.4,0.4,0.4,1.1,0,1.5l-1.6,1.6c-0.4,0.4-1.1,0.4-1.5,0
		l-1.6-1.6C76.3,41.2,76.3,40.5,76.7,40.1z"/>
</g>
</svg>
